<svg xmlns="http://www.w3.org/2000/svg" width="198.863" height="40.573" viewBox="0 0 198.863 40.573"><g transform="translate(-0.003)"><path d="M1063.889,842.907h67.761V808.946h-67.761Zm71.068,3.306h-74.373V805.641h74.373Z" transform="translate(-936.091 -805.641)" fill="#e3061f"/><path d="M1063.889,842.907h67.761V808.946h-67.761Zm71.068,3.306h-74.373V805.641h74.373Z" transform="translate(-936.091 -805.641)" fill="#e3061f"/><path d="M1112.535,904.061a2.168,2.168,0,1,1,2.154,2.126,2.118,2.118,0,0,1-2.154-2.126" transform="translate(-975.099 -877.922)" fill="#e3061f"/><path d="M1112.535,904.061a2.168,2.168,0,1,1,2.154,2.126,2.118,2.118,0,0,1-2.154-2.126Z" transform="translate(-975.099 -877.922)" fill="#e3061f"/><path d="M1138.364,867.5v-.218a7.023,7.023,0,0,1,7.194-7.388c3.162,0,6.134,1.418,6.515,5.343h-3.187a2.94,2.94,0,0,0-3.271-2.7c-2.262,0-3.871,1.745-3.871,4.689v.218c0,3.108,1.527,4.742,3.953,4.742a3.246,3.246,0,0,0,3.435-3.052h3.026c-.245,3.271-2.726,5.588-6.6,5.588a6.814,6.814,0,0,1-7.194-7.224" transform="translate(-994.493 -846.379)" fill="#e3061f"/><path d="M1138.364,867.5v-.218a7.023,7.023,0,0,1,7.194-7.388c3.162,0,6.134,1.418,6.515,5.343h-3.187a2.94,2.94,0,0,0-3.271-2.7c-2.262,0-3.871,1.745-3.871,4.689v.218c0,3.108,1.527,4.742,3.953,4.742a3.246,3.246,0,0,0,3.435-3.052h3.026c-.245,3.271-2.726,5.588-6.6,5.588A6.816,6.816,0,0,1,1138.364,867.5Z" transform="translate(-994.493 -846.379)" fill="#e3061f"/><path d="M1210.043,869.461v-1.418h-1.69c-2.509,0-4.117.572-4.117,2.317,0,1.2.654,1.991,2.29,1.991,2.017,0,3.517-1.064,3.517-2.89m-9.078,1.035c0-3.326,3.216-4.525,7.306-4.525h1.772v-.736c0-1.912-.655-2.862-2.59-2.862-1.717,0-2.563.82-2.726,2.236h-3.187c.273-3.326,2.914-4.716,6.106-4.716s5.7,1.309,5.7,5.207v9.35H1210.1v-1.745a4.963,4.963,0,0,1-4.362,2.017c-2.617,0-4.771-1.254-4.771-4.225" transform="translate(-1041.497 -846.379)" fill="#e3061f"/><path d="M1210.043,869.461v-1.418h-1.69c-2.509,0-4.117.572-4.117,2.318,0,1.2.654,1.99,2.29,1.99,2.017,0,3.517-1.059,3.517-2.89Zm-9.078,1.035c0-3.326,3.216-4.525,7.306-4.525h1.772v-.736c0-1.912-.655-2.862-2.59-2.862-1.717,0-2.563.82-2.726,2.235h-3.187c.273-3.325,2.914-4.716,6.107-4.716s5.7,1.308,5.7,5.207v9.35H1210.1v-1.745a4.963,4.963,0,0,1-4.362,2.017c-2.619,0-4.772-1.249-4.772-4.222Z" transform="translate(-1041.497 -846.379)" fill="#e3061f"/><path d="M1262.518,854.134h-2.125v-2.481h2.125v-3.135h3.3v3.135h2.914v2.48h-2.914v11.776h-3.3Z" transform="translate(-1086.119 -837.835)" fill="#e3061f"/><path d="M1262.518,854.134h-2.125v-2.481h2.125v-3.135h3.3v3.135h2.914v2.48h-2.914v11.776h-3.3Z" transform="translate(-1086.119 -837.835)" fill="#e3061f"/><path d="M562.832,844.395H560.9v-2.481h1.935V840c0-3.134,1.745-4.826,4.8-4.826a5.58,5.58,0,0,1,1.881.273v2.563a4.527,4.527,0,0,0-1.5-.245c-1.336,0-1.88.872-1.88,2.094V841.9h3.244v2.49h-3.244v11.776h-3.3Z" transform="translate(-560.897 -827.818)" fill="#e3061f"/><path d="M562.832,844.395H560.9v-2.481h1.935V840c0-3.134,1.745-4.826,4.8-4.826a5.58,5.58,0,0,1,1.881.273v2.563a4.527,4.527,0,0,0-1.5-.245c-1.336,0-1.88.872-1.88,2.094V841.9h3.244v2.49h-3.244v11.776h-3.3Z" transform="translate(-560.897 -827.818)" fill="#e3061f"/><path d="M605.439,871.336V862.2h3.3v8.751c0,2.154.9,3.134,2.807,3.134a3.181,3.181,0,0,0,3.326-3.407V862.2h3.3v14.257h-3.3v-2.235a4.8,4.8,0,0,1-4.526,2.508c-2.807,0-4.907-1.608-4.907-5.4" transform="translate(-594.341 -848.111)" fill="#e3061f"/><path d="M605.439,871.336V862.2h3.3v8.751c0,2.154.9,3.134,2.807,3.134a3.181,3.181,0,0,0,3.326-3.407V862.2h3.3v14.257h-3.3v-2.235a4.8,4.8,0,0,1-4.526,2.508c-2.81,0-4.909-1.6-4.909-5.393Z" transform="translate(-594.341 -848.111)" fill="#e3061f"/><path d="M672.2,861.3h3.3v2.263A4.911,4.911,0,0,1,680.106,861c2.863,0,4.88,1.663,4.88,5.588v8.969h-3.3v-8.669c0-2.154-.872-3.135-2.835-3.135a3.161,3.161,0,0,0-3.354,3.407v8.4h-3.3Z" transform="translate(-644.468 -847.207)" fill="#e3061f"/><path d="M672.2,861.3h3.3v2.263A4.911,4.911,0,0,1,680.106,861c2.863,0,4.88,1.663,4.88,5.588v8.969h-3.3v-8.669c0-2.154-.872-3.135-2.835-3.135a3.161,3.161,0,0,0-3.354,3.407v8.4h-3.3Z" transform="translate(-644.468 -847.207)" fill="#e3061f"/><path d="M746.083,849.52V849.3c0-3.135-1.445-4.689-3.844-4.689-2.426,0-3.844,1.69-3.844,4.771v.219c0,3.135,1.582,4.634,3.707,4.634,2.289,0,3.98-1.526,3.98-4.716m-11.067.164v-.219c0-4.553,2.7-7.442,6.406-7.442a4.871,4.871,0,0,1,4.553,2.481v-8.778h3.3v20.853h-3.3v-2.4a5.464,5.464,0,0,1-4.689,2.672c-3.571,0-6.269-2.535-6.269-7.169" transform="translate(-691.636 -828.231)" fill="#e3061f"/><path d="M746.083,849.52V849.3c0-3.135-1.445-4.689-3.844-4.689-2.426,0-3.844,1.69-3.844,4.771v.219c0,3.135,1.582,4.634,3.707,4.634,2.29,0,3.98-1.527,3.98-4.716Zm-11.067.164v-.219c0-4.553,2.7-7.442,6.406-7.442a4.871,4.871,0,0,1,4.553,2.481v-8.778h3.3v20.853h-3.3v-2.4a5.464,5.464,0,0,1-4.689,2.672c-3.571,0-6.269-2.533-6.269-7.167Z" transform="translate(-691.636 -828.231)" fill="#e3061f"/><path d="M812.933,870.569v-1.418h-1.69c-2.508,0-4.116.573-4.116,2.317,0,1.2.654,1.991,2.29,1.991,2.017,0,3.517-1.064,3.517-2.89m-9.078,1.036c0-3.326,3.216-4.525,7.306-4.525h1.772v-.736c0-1.912-.654-2.862-2.59-2.862-1.717,0-2.562.82-2.726,2.236h-3.187c.273-3.326,2.914-4.717,6.106-4.717s5.7,1.309,5.7,5.207v9.351H812.99v-1.745a4.963,4.963,0,0,1-4.362,2.017c-2.617,0-4.771-1.254-4.771-4.225" transform="translate(-743.324 -847.208)" fill="#e3061f"/><path d="M812.933,870.569v-1.418h-1.69c-2.508,0-4.116.573-4.116,2.317,0,1.2.654,1.991,2.29,1.991C811.433,873.459,812.933,872.4,812.933,870.569Zm-9.078,1.036c0-3.326,3.216-4.525,7.306-4.525h1.772v-.736c0-1.912-.654-2.862-2.59-2.862-1.717,0-2.562.82-2.726,2.236H804.43c.273-3.326,2.914-4.717,6.107-4.717s5.7,1.309,5.7,5.207v9.351h-3.244v-1.745a4.964,4.964,0,0,1-4.362,2.017c-2.619,0-4.772-1.255-4.772-4.226Z" transform="translate(-743.324 -847.208)" fill="#e3061f"/><path d="M864.923,868.605v-.218A7.023,7.023,0,0,1,872.117,861c3.162,0,6.134,1.418,6.515,5.343h-3.187a2.939,2.939,0,0,0-3.271-2.7c-2.263,0-3.871,1.745-3.871,4.689v.219c0,3.108,1.527,4.742,3.953,4.742a3.246,3.246,0,0,0,3.435-3.052h3.026c-.245,3.271-2.726,5.588-6.6,5.588a6.813,6.813,0,0,1-7.194-7.224" transform="translate(-789.177 -847.208)" fill="#e3061f"/><path d="M864.923,868.605v-.218A7.023,7.023,0,0,1,872.117,861c3.162,0,6.134,1.418,6.515,5.343h-3.187a2.939,2.939,0,0,0-3.271-2.7c-2.263,0-3.871,1.745-3.871,4.689v.219c0,3.108,1.527,4.742,3.953,4.742a3.246,3.246,0,0,0,3.435-3.052h3.026c-.245,3.271-2.726,5.588-6.6,5.588a6.818,6.818,0,0,1-7.2-7.226Z" transform="translate(-789.177 -847.208)" fill="#e3061f"/><path d="M930.941,843.706h3.3v14.257h-3.3Zm-.354-4.225a1.965,1.965,0,1,1,1.963,1.881,1.912,1.912,0,0,1-1.963-1.881" transform="translate(-838.481 -829.614)" fill="#e3061f"/><path d="M930.941,843.706h3.3v14.257h-3.3Zm-.354-4.225a1.965,1.965,0,1,1,1.963,1.881,1.912,1.912,0,0,1-1.963-1.881Z" transform="translate(-838.481 -829.614)" fill="#e3061f"/><g transform="translate(98.81 7.74)"><path d="M965.059,836.709h3.653l-2.836,4.225H963.45Zm3.707,13.576v-.19c0-2.944-1.472-4.743-3.926-4.743s-3.953,1.771-3.953,4.716v.218c0,2.914,1.445,4.743,3.953,4.743,2.453,0,3.926-1.827,3.926-4.743m-11.259.055v-.218a7.32,7.32,0,1,1,14.639-.082v.219a7.32,7.32,0,0,1-14.639.082" transform="translate(-957.507 -836.709)" fill="#e3061f"/><path d="M965.059,836.709h3.653l-2.836,4.225H963.45Zm3.707,13.576v-.19c0-2.944-1.472-4.743-3.926-4.743s-3.953,1.771-3.953,4.716v.218c0,2.914,1.445,4.743,3.953,4.743,2.456,0,3.928-1.827,3.928-4.743Zm-11.259.055v-.218a7.32,7.32,0,0,1,14.639-.082v.219a7.32,7.32,0,0,1-14.639.082Z" transform="translate(-957.507 -836.709)" fill="#e3061f"/></g></g></svg>